<svg width="130" height="135" viewBox="0 0 130 135" fill="none" xmlns="http://www.w3.org/2000/svg" preserveAspectRatio="xMidYMid meet">
<g filter="url(#filter0_d_123_18)">
<path d="M16 125.5H14.5V127H16V125.5ZM17.0607 0.93934C16.4749 0.353553 15.5251 0.353553 14.9393 0.93934L5.3934 10.4853C4.80761 11.0711 4.80761 12.0208 5.3934 12.6066C5.97919 13.1924 6.92893 13.1924 7.51472 12.6066L16 4.12132L24.4853 12.6066C25.0711 13.1924 26.0208 13.1924 26.6066 12.6066C27.1924 12.0208 27.1924 11.0711 26.6066 10.4853L17.0607 0.93934ZM126 124H16V127H126V124ZM17.5 125.5V2H14.5V125.5H17.5Z" fill="white"/>
</g>
<defs>
<filter id="filter0_d_123_18" x="0.954102" y="0.5" width="129.046" height="134.5" filterUnits="userSpaceOnUse" color-interpolation-filters="sRGB">
<feFlood flood-opacity="0" result="BackgroundImageFix"/>
<feColorMatrix in="SourceAlpha" type="matrix" values="0 0 0 0 0 0 0 0 0 0 0 0 0 0 0 0 0 0 127 0" result="hardAlpha"/>
<feOffset dy="4"/>
<feGaussianBlur stdDeviation="2"/>
<feComposite in2="hardAlpha" operator="out"/>
<feColorMatrix type="matrix" values="0 0 0 0 0 0 0 0 0 0 0 0 0 0 0 0 0 0 0.25 0"/>
<feBlend mode="normal" in2="BackgroundImageFix" result="effect1_dropShadow_123_18"/>
<feBlend mode="normal" in="SourceGraphic" in2="effect1_dropShadow_123_18" result="shape"/>
</filter>
</defs>
</svg>
