<svg width="207" height="74" viewBox="0 0 207 74" fill="none" xmlns="http://www.w3.org/2000/svg">
<path d="M206.061 38.0607C206.646 37.4749 206.646 36.5251 206.061 35.9393L196.515 26.3934C195.929 25.8076 194.979 25.8076 194.393 26.3934C193.808 26.9792 193.808 27.9289 194.393 28.5147L202.879 37L194.393 45.4853C193.808 46.0711 193.808 47.0208 194.393 47.6066C194.979 48.1924 195.929 48.1924 196.515 47.6066L206.061 38.0607ZM1 38.5H205V35.5H1V38.5Z" fill="white"/>
<path d="M5.65909 35H1.22727L14.0455 0.0909081H18.4091L31.2273 35H26.7955L16.3636 5.61364H16.0909L5.65909 35ZM7.29545 21.3636H25.1591V25.1136H7.29545V21.3636ZM36.1193 35V8.81818H40.0057V12.7727H40.2784C40.7557 11.4773 41.6193 10.4261 42.8693 9.61932C44.1193 8.8125 45.5284 8.40909 47.0966 8.40909C47.392 8.40909 47.7614 8.41477 48.2045 8.42614C48.6477 8.4375 48.983 8.45455 49.2102 8.47727V12.5682C49.0739 12.5341 48.7614 12.483 48.2727 12.4148C47.7955 12.3352 47.2898 12.2955 46.7557 12.2955C45.483 12.2955 44.3466 12.5625 43.3466 13.0966C42.358 13.6193 41.5739 14.3466 40.9943 15.2784C40.4261 16.1989 40.142 17.25 40.142 18.4318V35H36.1193ZM53.9787 35V8.81818H57.8651V12.7727H58.1378C58.6151 11.4773 59.4787 10.4261 60.7287 9.61932C61.9787 8.8125 63.3878 8.40909 64.956 8.40909C65.2514 8.40909 65.6207 8.41477 66.0639 8.42614C66.5071 8.4375 66.8423 8.45455 67.0696 8.47727V12.5682C66.9332 12.5341 66.6207 12.483 66.1321 12.4148C65.6548 12.3352 65.1491 12.2955 64.6151 12.2955C63.3423 12.2955 62.206 12.5625 61.206 13.0966C60.2173 13.6193 59.4332 14.3466 58.8537 15.2784C58.2855 16.1989 58.0014 17.25 58.0014 18.4318V35H53.9787ZM81.6776 35.5455C79.3139 35.5455 77.2401 34.983 75.456 33.858C73.6832 32.733 72.2969 31.1591 71.2969 29.1364C70.3082 27.1136 69.8139 24.75 69.8139 22.0455C69.8139 19.3182 70.3082 16.9375 71.2969 14.9034C72.2969 12.8693 73.6832 11.2898 75.456 10.1648C77.2401 9.03977 79.3139 8.47727 81.6776 8.47727C84.0412 8.47727 86.1094 9.03977 87.8821 10.1648C89.6662 11.2898 91.0526 12.8693 92.0412 14.9034C93.0412 16.9375 93.5412 19.3182 93.5412 22.0455C93.5412 24.75 93.0412 27.1136 92.0412 29.1364C91.0526 31.1591 89.6662 32.733 87.8821 33.858C86.1094 34.983 84.0412 35.5455 81.6776 35.5455ZM81.6776 31.9318C83.473 31.9318 84.9503 31.4716 86.1094 30.5511C87.2685 29.6307 88.1264 28.4205 88.6832 26.9205C89.2401 25.4205 89.5185 23.7955 89.5185 22.0455C89.5185 20.2955 89.2401 18.6648 88.6832 17.1534C88.1264 15.642 87.2685 14.4205 86.1094 13.4886C84.9503 12.5568 83.473 12.0909 81.6776 12.0909C79.8821 12.0909 78.4048 12.5568 77.2457 13.4886C76.0866 14.4205 75.2287 15.642 74.6719 17.1534C74.1151 18.6648 73.8366 20.2955 73.8366 22.0455C73.8366 23.7955 74.1151 25.4205 74.6719 26.9205C75.2287 28.4205 76.0866 29.6307 77.2457 30.5511C78.4048 31.4716 79.8821 31.9318 81.6776 31.9318ZM104.723 35L96.7457 8.81818H100.973L106.632 28.8636H106.905L112.496 8.81818H116.791L122.314 28.7955H122.587L128.246 8.81818H132.473L124.496 35H120.541L114.814 14.8864H114.405L108.678 35H104.723Z" fill="white"/>
<path d="M5.65909 39H1.22727L14.0455 73.9091H18.4091L31.2273 39H26.7955L16.3636 68.3864H16.0909L5.65909 39ZM7.29545 52.6364H25.1591V48.8864H7.29545V52.6364ZM36.1193 39V65.1818H40.0057V61.2273H40.2784C40.7557 62.5227 41.6193 63.5739 42.8693 64.3807C44.1193 65.1875 45.5284 65.5909 47.0966 65.5909C47.392 65.5909 47.7614 65.5852 48.2045 65.5739C48.6477 65.5625 48.983 65.5455 49.2102 65.5227V61.4318C49.0739 61.4659 48.7614 61.517 48.2727 61.5852C47.7955 61.6648 47.2898 61.7045 46.7557 61.7045C45.483 61.7045 44.3466 61.4375 43.3466 60.9034C42.358 60.3807 41.5739 59.6534 40.9943 58.7216C40.4261 57.8011 40.142 56.75 40.142 55.5682V39H36.1193ZM53.9787 39V65.1818H57.8651V61.2273H58.1378C58.6151 62.5227 59.4787 63.5739 60.7287 64.3807C61.9787 65.1875 63.3878 65.5909 64.956 65.5909C65.2514 65.5909 65.6207 65.5852 66.0639 65.5739C66.5071 65.5625 66.8423 65.5455 67.0696 65.5227V61.4318C66.9332 61.4659 66.6207 61.517 66.1321 61.5852C65.6548 61.6648 65.1491 61.7045 64.6151 61.7045C63.3423 61.7045 62.206 61.4375 61.206 60.9034C60.2173 60.3807 59.4332 59.6534 58.8537 58.7216C58.2855 57.8011 58.0014 56.75 58.0014 55.5682V39H53.9787ZM81.6776 38.4545C79.3139 38.4545 77.2401 39.017 75.456 40.142C73.6832 41.267 72.2969 42.8409 71.2969 44.8636C70.3082 46.8864 69.8139 49.25 69.8139 51.9545C69.8139 54.6818 70.3082 57.0625 71.2969 59.0966C72.2969 61.1307 73.6832 62.7102 75.456 63.8352C77.2401 64.9602 79.3139 65.5227 81.6776 65.5227C84.0412 65.5227 86.1094 64.9602 87.8821 63.8352C89.6662 62.7102 91.0526 61.1307 92.0412 59.0966C93.0412 57.0625 93.5412 54.6818 93.5412 51.9545C93.5412 49.25 93.0412 46.8864 92.0412 44.8636C91.0526 42.8409 89.6662 41.267 87.8821 40.142C86.1094 39.017 84.0412 38.4545 81.6776 38.4545ZM81.6776 42.0682C83.473 42.0682 84.9503 42.5284 86.1094 43.4489C87.2685 44.3693 88.1264 45.5795 88.6832 47.0795C89.2401 48.5795 89.5185 50.2045 89.5185 51.9545C89.5185 53.7045 89.2401 55.3352 88.6832 56.8466C88.1264 58.358 87.2685 59.5795 86.1094 60.5114C84.9503 61.4432 83.473 61.9091 81.6776 61.9091C79.8821 61.9091 78.4048 61.4432 77.2457 60.5114C76.0866 59.5795 75.2287 58.358 74.6719 56.8466C74.1151 55.3352 73.8366 53.7045 73.8366 51.9545C73.8366 50.2045 74.1151 48.5795 74.6719 47.0795C75.2287 45.5795 76.0866 44.3693 77.2457 43.4489C78.4048 42.5284 79.8821 42.0682 81.6776 42.0682ZM104.723 39L96.7457 65.1818H100.973L106.632 45.1364H106.905L112.496 65.1818H116.791L122.314 45.2045H122.587L128.246 65.1818H132.473L124.496 39H120.541L114.814 59.1136H114.405L108.678 39H104.723Z" fill="white"/>
</svg>
